Coordinates
version=1
nRows=27
nColumns=12
inDegrees=yes

Units are S.I. units (second, meters, Newtons, ...)
Angles are in degrees

endheader
time	SC_y	SC_z	SC_x	AC_y	AC_z	AC_x	GH_y	GH_z	GH_yy	EL_x	PS_y
       0.0              -39.63          2.274          7.385          36.08          7.216         -12.28         -129.1          8.216         -32.71          110.4          73.69
   0.03548              -39.63          2.276          7.385          36.08          7.213         -12.28         -129.1          8.224         -32.69          110.3           73.7
   0.07096              -39.63          2.278          7.386          36.08           7.21         -12.28         -129.1          8.233         -32.67          110.3          73.71
    0.1064              -39.64          2.279          7.387          36.08          7.207         -12.28         -129.1          8.242         -32.64          110.3          73.73
    0.1419              -39.64          2.281          7.388          36.08          7.203         -12.28         -129.0          8.251         -32.62          110.3          73.74
    0.1774              -39.64          2.283          7.389          36.08            7.2         -12.28         -129.0          8.261         -32.59          110.3          73.75
    0.2129              -39.64          2.286           7.39          36.08          7.196         -12.28         -129.0          8.272         -32.56          110.3          73.77
    0.2484              -39.65          2.288          7.391          36.08          7.191         -12.28         -129.0          8.283         -32.53          110.3          73.78
    0.2838              -39.65           2.29          7.392          36.08          7.187         -12.28         -128.9          8.296         -32.49          110.2           73.8
    0.3193              -39.65          2.293          7.393          36.08          7.182         -12.27         -128.9          8.309         -32.45          110.2          73.82
    0.3548              -39.66          2.296          7.394          36.08          7.177         -12.27         -128.9          8.323         -32.41          110.2          73.84
    0.3903              -39.66          2.299          7.396          36.08          7.171         -12.27         -128.8          8.339         -32.37          110.2          73.86
    0.4257              -39.66          2.303          7.397          36.07          7.165         -12.27         -128.8          8.355         -32.32          110.1          73.88
    0.4612              -39.67          2.306          7.399          36.07          7.159         -12.27         -128.7          8.373         -32.27          110.1          73.91
    0.4967              -39.67           2.31            7.4          36.07          7.152         -12.27         -128.7          8.392         -32.22          110.1          73.93
    0.5322              -39.68          2.314          7.402          36.07          7.144         -12.26         -128.6          8.413         -32.16          110.0          73.96
    0.5677              -39.68          2.319          7.404          36.07          7.136         -12.26         -128.6          8.436          -32.1          110.0          73.99
    0.6031              -39.69          2.324          7.406          36.07          7.127         -12.26         -128.5          8.461         -32.03          110.0          74.03
    0.6386               -39.7          2.329          7.409          36.07          7.117         -12.26         -128.5          8.488         -31.95          109.9          74.07
    0.6741               -39.7          2.336          7.411          36.06          7.106         -12.25         -128.4          8.517         -31.87          109.9          74.11
    0.7096              -39.71          2.342          7.414          36.06          7.095         -12.25         -128.3           8.55         -31.77          109.8          74.15
    0.7451              -39.72          2.349          7.417          36.06          7.081         -12.24         -128.2          8.586         -31.67          109.8           74.2
    0.7805              -39.73          2.357          7.421          36.06          7.067         -12.24         -128.1          8.625         -31.56          109.7          74.26
     0.816              -39.74          2.366          7.425          36.05          7.051         -12.24         -128.0          8.669         -31.44          109.6          74.32
    0.8515              -39.76          2.376          7.429          36.05          7.033         -12.23         -127.9          8.718          -31.3          109.6          74.38
     0.887              -39.77          2.387          7.434          36.05          7.014         -12.22         -127.8          8.772         -31.15          109.5          74.46
    0.9224              -39.78            2.4          7.439          36.04          6.991         -12.22         -127.6          8.833         -30.97          109.4          74.54
